<?xml version="1.0" encoding="UTF-8" standalone="no"?><!DOCTYPE svg PUBLIC "-//W3C//DTD SVG 1.1//EN" "http://www.w3.org/Graphics/SVG/1.1/DTD/svg11.dtd"><svg width="100%" height="100%" viewBox="0 0 461 165" version="1.1" xmlns="http://www.w3.org/2000/svg" xmlns:xlink="http://www.w3.org/1999/xlink" xml:space="preserve" xmlns:serif="http://www.serif.com/" style="fill-rule:evenodd;clip-rule:evenodd;stroke-linejoin:round;stroke-miterlimit:2;"><g><g><path d="M284.44,121.747L242.31,66.507L242.44,71.937L242.44,121.747L227.08,121.747L227.08,40.937L241.08,40.937L283.08,96.447L282.95,92.737L282.95,40.937L298.32,40.937L298.32,121.747L284.44,121.747Z" style="fill:#fff;fill-rule:nonzero;"/><path d="M368.56,58.177C357.96,54.067 350.41,52.617 342.56,52.617C335.27,52.617 330.9,56.457 330.9,60.827C330.9,68.507 336.33,69.707 352.1,74.997C366.93,79.907 375.01,85.067 375.01,99.247C375.01,114.877 363.49,122.957 347.72,122.957C336.59,122.957 321.72,118.587 311.29,112.627L317.29,100.567C328.42,106.267 339.02,109.447 346.97,109.447C354.25,109.447 358.89,106.397 358.89,100.707C358.89,93.707 355.18,91.427 338.62,86.527C324.84,82.397 315.19,76.967 315.19,62.177C315.19,49.067 325.13,39.657 341.82,39.657C352.641,39.714 363.334,42.015 373.22,46.417L368.56,58.177Z" style="fill:#fff;fill-rule:nonzero;"/><path d="M415.99,40.937C444.6,40.937 460.63,55.937 460.63,80.937C460.63,106.507 444.34,121.737 415.99,121.737L389.49,121.737L389.49,40.937L415.99,40.937ZM415.99,107.837C434.8,107.837 445.13,98.427 445.13,80.947C445.13,63.947 435.06,54.847 415.99,54.847L404.86,54.847L404.86,107.847L415.99,107.837Z" style="fill:#fff;fill-rule:nonzero;"/></g><g><path d="M5.47,26.377C2.091,28.328 0.002,31.944 0,35.847L0,159.547C0.01,161.964 2.002,163.948 4.42,163.948C6.138,163.948 7.707,162.945 8.43,161.387L55.59,58.787L48.59,1.457L5.47,26.377Z" style="fill:#fff;fill-opacity:0.6;fill-rule:nonzero;"/><path d="M159.19,137.747C162.574,135.795 164.664,132.173 164.66,128.267L164.66,4.577C164.661,4.532 164.662,4.488 164.662,4.444C164.662,2.024 162.671,0.034 160.252,0.034C158.483,0.034 156.879,1.098 156.19,2.727L109.04,105.337L116.04,162.657L159.19,137.747Z" style="fill:#fff;fill-opacity:0.6;fill-rule:nonzero;"/><path d="M62.61,4.027C59.216,-0.123 53.257,-1.217 48.61,1.457L5.47,26.377C2.091,28.328 0.002,31.944 0,35.847L0,35.577C0,35.571 0,35.565 0,35.56C0,33.563 1.643,31.92 3.64,31.92C4.236,31.92 4.824,32.066 5.35,32.347L138.35,102.347C138.616,102.49 138.913,102.565 139.215,102.565C140.213,102.565 141.035,101.743 141.035,100.745C141.035,100.318 140.884,99.904 140.61,99.577L62.61,4.027Z" style="fill:#fff;fill-rule:nonzero;"/><path d="M102.02,160.097C105.417,164.243 111.375,165.332 116.02,162.657L159.19,137.747C162.574,135.795 164.664,132.173 164.66,128.267L164.66,128.547C164.657,130.547 163.01,132.191 161.01,132.191C160.422,132.191 159.842,132.049 159.32,131.777L26.32,61.777C26.056,61.637 25.762,61.563 25.463,61.563C24.459,61.563 23.633,62.389 23.633,63.393C23.633,63.818 23.78,64.229 24.05,64.557L102.02,160.097Z" style="fill:#fff;fill-rule:nonzero;"/></g></g></svg>